<svg xmlns="http://www.w3.org/2000/svg" viewBox="0 0 96 96" fill="none">
  <g stroke="#000" stroke-width="5.5" stroke-linecap="round" stroke-linejoin="round">
    <path d="M17 15h61a8 8 0 0 1 8 8v58H26a9 9 0 0 1-9-9V15Z"/>
    <path d="M31 15v57a9 9 0 0 0 9 9"/>
    <path d="M50 15v66"/>
    <path d="M50 49h36"/>
    <path d="M60 33 72 25"/>
    <path d="M60 33 72 41"/>
    <circle cx="59" cy="33" r="5" fill="#000" stroke="none"/>
    <circle cx="75" cy="23" r="4" fill="#000" stroke="none"/>
    <circle cx="75" cy="43" r="4" fill="#000" stroke="none"/>
    <circle cx="67" cy="65" r="12"/>
    <path d="M67 65h9"/>
    <path d="M67 65v12"/>
  </g>
</svg>
